# xmcd
#
# Track frame offsets: 
#        150
#        17522
#        41072
#        48800
#        60289
#        79135
#        103177
#        120092
#        133320
#        153567
#        170905
#        205732
#        225975
#        243222
#        264247
#        289182
#
# Disc length: 4195 seconds
#
# Revision: 1
# Processed by: cddbd v1.5.2PL0 Copyright (c) Steve Scherf et al.
# Submitted via: ExactAudioCopy v1.0b3
#
DISCID=cd106110
DTITLE=Green, Peter and The Original Fleetwood Mac - Alone With The Blue
DTITLE=s
DYEAR=2000
DGENRE=Blues
TTITLE0=Walkin' The Road
TTITLE1=Trying So Hard To Forget
TTITLE2=Coming, I'm Coming
TTITLE3=Kind Hearted Woman
TTITLE4=Jumping At Shadows
TTITLE5=Sandy Mary
TTITLE6=Same Old Blues
TTITLE7=Born Under A Bad Sign
TTITLE8=Tribal Dance
TTITLE9=Time For Me To Go
TTITLE10=A Fool No More
TTITLE11=Loser Two Times
TTITLE12=Fallin' Apart
TTITLE13=Just For You
TTITLE14=Last Train To San Antone
TTITLE15=Give Me Back My Freedom
EXTD=
EXTT0=
EXTT1=
EXTT2=
EXTT3=
EXTT4=
EXTT5=
EXTT6=
EXTT7=
EXTT8=
EXTT9=
EXTT10=
EXTT11=
EXTT12=
EXTT13=
EXTT14=
EXTT15=
PLAYORDER=
